<svg width="221" height="60" viewBox="0 0 221 60" fill="none" xmlns="http://www.w3.org/2000/svg">
<rect x="0.375" y="0.375" width="219.562" height="58.6875" stroke="#FF4128" stroke-width="0.75"/>
<path d="M92.8314 43.3125H86.9657V32.5834H75.8653V43.3125H69.9996V16.7681H75.8653V27.5529H86.9657V16.7681H92.8314V43.3125ZM100.9 20.7034H95.2295V15.84H100.9V20.7034ZM100.845 43.3125H95.2852V22.8473H100.845V43.3125ZM108.784 43.3125H103.225V22.8473H108.784V29.0008C109.001 27.918 109.32 26.9589 109.74 26.1236C110.161 25.2883 110.675 24.5891 111.281 24.0261C111.887 23.4568 112.584 23.0268 113.369 22.736C114.161 22.439 115.031 22.2905 115.977 22.2905C117.079 22.2905 118.05 22.4885 118.892 22.8845C119.739 23.2805 120.451 23.8652 121.026 24.6386C121.602 25.4059 122.035 26.3587 122.326 27.4972C122.623 28.6357 122.771 29.9444 122.771 31.4232V43.3125H117.212V32.3513C117.212 28.8678 115.888 27.126 113.239 27.126C112.528 27.126 111.897 27.2467 111.346 27.488C110.795 27.7231 110.328 28.0727 109.945 28.5367C109.567 28.9946 109.279 29.5639 109.081 30.2445C108.883 30.9189 108.784 31.6955 108.784 32.5741V43.3125ZM135.232 33.1681L145.543 43.3125H138.453L130.61 35.4327V43.3125H125.05V15.84H130.61V31.4696L138.193 22.8473H144.755L135.232 33.1681ZM145.762 30.3466C145.762 29.1091 145.988 27.9922 146.44 26.9961C146.898 25.9999 147.55 25.1553 148.398 24.4623C149.252 23.7631 150.285 23.2279 151.498 22.8566C152.711 22.4792 154.078 22.2905 155.6 22.2905C157.159 22.2905 158.555 22.4916 159.786 22.8937C161.017 23.2897 162.06 23.8683 162.914 24.6293C163.768 25.3904 164.417 26.3216 164.863 27.423C165.315 28.5244 165.54 29.7742 165.54 31.1726V43.3125H159.981V38.0779C159.752 38.9751 159.399 39.7825 158.923 40.5003C158.453 41.2118 157.88 41.8182 157.206 42.3194C156.538 42.8206 155.773 43.2042 154.913 43.4703C154.06 43.7363 153.131 43.8694 152.129 43.8694C151.083 43.8694 150.13 43.724 149.27 43.4332C148.417 43.1485 147.683 42.7432 147.071 42.2173C146.464 41.6852 145.994 41.0479 145.66 40.3054C145.326 39.5629 145.159 38.7368 145.159 37.8273C145.159 36.8558 145.351 35.9896 145.734 35.2285C146.124 34.4613 146.681 33.8147 147.405 33.2887C148.135 32.7566 149.026 32.3513 150.078 32.0729C151.13 31.7883 152.324 31.646 153.66 31.646H159.981V31.1726C159.981 30.4672 159.879 29.8361 159.675 29.2792C159.471 28.7224 159.177 28.2521 158.793 27.8685C158.409 27.4787 157.936 27.1817 157.373 26.9775C156.816 26.7733 156.182 26.6712 155.47 26.6712C154.753 26.6712 154.131 26.7578 153.605 26.9311C153.085 27.0982 152.652 27.3426 152.305 27.6643C151.965 27.9799 151.711 28.3635 151.544 28.8152C151.383 29.2669 151.303 29.7773 151.303 30.3466H145.762ZM154.236 35.0243C153.079 35.0243 152.203 35.2192 151.609 35.6091C151.015 35.9927 150.718 36.5619 150.718 37.3168C150.718 38.0902 151.028 38.6873 151.646 39.1081C152.271 39.5227 153.162 39.7299 154.319 39.7299C155.136 39.7299 155.888 39.6278 156.575 39.4237C157.268 39.2133 157.865 38.9256 158.366 38.5605C158.873 38.1954 159.269 37.7623 159.554 37.2611C159.839 36.7599 159.981 36.2154 159.981 35.6276V35.0243H154.236ZM178.013 33.1681L188.324 43.3125H181.233L173.391 35.4327V43.3125H167.831V15.84H173.391V31.4696L180.973 22.8473H187.535L178.013 33.1681ZM203.369 22.8473H208.929V43.3125H203.369V37.1683C203.153 38.2511 202.834 39.2102 202.413 40.0455C201.993 40.8746 201.479 41.5738 200.873 42.1431C200.266 42.7061 199.567 43.1331 198.775 43.4239C197.989 43.7209 197.123 43.8694 196.176 43.8694C195.075 43.8694 194.101 43.6714 193.253 43.2754C192.411 42.8794 191.703 42.2947 191.127 41.5212C190.552 40.7478 190.116 39.7949 189.819 38.6626C189.528 37.5241 189.383 36.2154 189.383 34.7366V22.8473H194.942V33.8085C194.942 37.2859 196.266 39.0246 198.914 39.0246C199.626 39.0246 200.257 38.907 200.808 38.6719C201.358 38.4306 201.823 38.081 202.2 37.6231C202.584 37.1652 202.874 36.5991 203.072 35.9246C203.27 35.244 203.369 34.4644 203.369 33.5857V22.8473Z" fill="#272727"/>
<rect width="59.3438" height="59.3438" fill="#FF4128"/>
<g filter="url(#filter0_d_4_596)">
<path fill-rule="evenodd" clip-rule="evenodd" d="M14.8359 7.41797H7.41797L9.89692 21.1018C10.3788 21.1637 10.8701 21.1956 11.3688 21.1956C13.4398 21.1956 15.3822 20.6453 17.0578 19.6829L14.8359 7.41797Z" fill="#272727"/>
<path fill-rule="evenodd" clip-rule="evenodd" d="M18.7068 28.7954C18.3405 28.9367 17.9691 29.0677 17.593 29.1882C17.0076 29.3756 16.4106 29.5373 15.8034 29.6719C14.4278 29.977 12.9999 30.1432 11.5352 30.155L15.4791 51.9258H22.8971L20.2094 37.0899H23.5422H28.9175H36.3355H41.8183L44.506 51.9258H51.9239L49.2363 37.0899L47.8924 29.6719H40.4745H34.9916H30.9601H27.5737H23.5422H18.8656L18.7068 28.7954Z" fill="#272727"/>
<path fill-rule="evenodd" clip-rule="evenodd" d="M30.963 48.3651L29.0664 37.8961H36.4844L39.026 51.9258H31.608L30.963 48.3651Z" fill="#F7F2EB"/>
<path fill-rule="evenodd" clip-rule="evenodd" d="M23.5431 7.41797H30.9611L31.0913 8.13648L34.8465 28.8656H27.4286L26.4937 23.7052L26.2715 22.4784C25.9108 22.9026 25.533 23.3119 25.1393 23.7052C24.6329 24.211 24.1001 24.6903 23.5431 25.1409C22.0491 26.3494 20.381 27.3512 18.5823 28.1028C16.3737 29.0257 13.9682 29.5714 11.4463 29.6593L10.0898 22.1714C10.2996 22.1815 10.5107 22.1867 10.723 22.1867C13.0817 22.1867 15.2928 21.5543 17.1959 20.4498C20.6195 18.4628 23.0463 14.948 23.5431 10.8386C23.6052 10.3252 23.6371 9.80258 23.6371 9.27246C23.6371 8.74234 23.6052 8.21968 23.5431 7.70629C23.5315 7.60985 23.5188 7.51374 23.505 7.41797H23.5431Z" fill="#F7F2EB"/>
<path fill-rule="evenodd" clip-rule="evenodd" d="M42.25 11.772L43.5938 19.1899H50.541L51.8848 26.6079H44.9377H44.4669H38.0572H37.5197L37.2276 24.9953L34.832 11.772H42.25Z" fill="#272727"/>
</g>
<defs>
<filter id="filter0_d_4_596" x="7.41797" y="7.41797" width="46.7578" height="46.7579" filterUnits="userSpaceOnUse" color-interpolation-filters="sRGB">
<feFlood flood-opacity="0" result="BackgroundImageFix"/>
<feColorMatrix in="SourceAlpha" type="matrix" values="0 0 0 0 0 0 0 0 0 0 0 0 0 0 0 0 0 0 127 0" result="hardAlpha"/>
<feOffset dx="2.25" dy="2.25"/>
<feComposite in2="hardAlpha" operator="out"/>
<feColorMatrix type="matrix" values="0 0 0 0 0 0 0 0 0 0 0 0 0 0 0 0 0 0 0.32 0"/>
<feBlend mode="normal" in2="BackgroundImageFix" result="effect1_dropShadow_4_596"/>
<feBlend mode="normal" in="SourceGraphic" in2="effect1_dropShadow_4_596" result="shape"/>
</filter>
</defs>
</svg>
